<svg xmlns="http://www.w3.org/2000/svg" version="1.1" xmlns:xlink="http://www.w3.org/1999/xlink" xmlns:svgjs="http://svgjs.dev/svgjs" width="1440" height="560" preserveAspectRatio="none" viewBox="0 0 1440 560">
    <g mask="url(&quot;#SvgjsMask1002&quot;)" fill="none">
        <path d="M-103.04 400.78L-103.04 400.78" stroke="#132e65" stroke-width="1.5"></path>
        <path d="M-103.04 400.78L46.4 406.08" stroke="#132e65" stroke-width="1.5"></path>
        <path d="M-103.04 400.78L-40.45 560.68" stroke="#132e65" stroke-width="1.5"></path>
        <path d="M-103.04 400.78L-37.59 641.24" stroke="#132e65" stroke-width="1.5"></path>
        <path d="M-103.04 400.78L214.88 525.2" stroke="#132e65" stroke-width="1.5"></path>
        <path d="M-40.45 560.68L-40.45 560.68" stroke="#132e65" stroke-width="1.5"></path>
        <path d="M-40.45 560.68L-37.59 641.24" stroke="#132e65" stroke-width="1.5"></path>
        <path d="M-37.59 641.24L-37.59 641.24" stroke="#132e65" stroke-width="1.5"></path>
        <path d="M-37.59 641.24L105.03 685.75" stroke="#132e65" stroke-width="1.5"></path>
        <path d="M-37.59 641.24L46.4 406.08" stroke="#132e65" stroke-width="1.5"></path>
        <path d="M-37.59 641.24L237.58 670.62" stroke="#132e65" stroke-width="1.5"></path>
        <path d="M46.4 406.08L46.4 406.08" stroke="#132e65" stroke-width="1.5"></path>
        <path d="M46.4 406.08L-40.45 560.68" stroke="#132e65" stroke-width="1.5"></path>
        <path d="M46.4 406.08L238.76 369.07" stroke="#132e65" stroke-width="1.5"></path>
        <path d="M46.4 406.08L214.88 525.2" stroke="#132e65" stroke-width="1.5"></path>
        <path d="M46.4 406.08L105.03 685.75" stroke="#132e65" stroke-width="1.5"></path>
        <path d="M105.03 685.75L105.03 685.75" stroke="#132e65" stroke-width="1.5"></path>
        <path d="M105.03 685.75L237.58 670.62" stroke="#132e65" stroke-width="1.5"></path>
        <path d="M105.03 685.75L-40.45 560.68" stroke="#132e65" stroke-width="1.5"></path>
        <path d="M105.03 685.75L214.88 525.2" stroke="#132e65" stroke-width="1.5"></path>
        <path d="M238.76 369.07L238.76 369.07" stroke="#132e65" stroke-width="1.5"></path>
        <path d="M238.76 369.07L214.88 525.2" stroke="#132e65" stroke-width="1.5"></path>
        <path d="M238.76 369.07L368.77 509.29" stroke="#132e65" stroke-width="1.5"></path>
        <path d="M238.76 369.07L529.54 359.35" stroke="#132e65" stroke-width="1.5"></path>
        <path d="M214.88 525.2L214.88 525.2" stroke="#132e65" stroke-width="1.5"></path>
        <path d="M214.88 525.2L237.58 670.62" stroke="#132e65" stroke-width="1.5"></path>
        <path d="M214.88 525.2L368.77 509.29" stroke="#132e65" stroke-width="1.5"></path>
        <path d="M237.58 670.62L237.58 670.62" stroke="#132e65" stroke-width="1.5"></path>
        <path d="M237.58 670.62L391.84 647.41" stroke="#132e65" stroke-width="1.5"></path>
        <path d="M368.77 509.29L368.77 509.29" stroke="#132e65" stroke-width="1.5"></path>
        <path d="M368.77 509.29L505.04 506.41" stroke="#132e65" stroke-width="1.5"></path>
        <path d="M368.77 509.29L391.84 647.41" stroke="#132e65" stroke-width="1.5"></path>
        <path d="M391.84 647.41L391.84 647.41" stroke="#132e65" stroke-width="1.5"></path>
        <path d="M391.84 647.41L522.72 660.57" stroke="#132e65" stroke-width="1.5"></path>
        <path d="M391.84 647.41L505.04 506.41" stroke="#132e65" stroke-width="1.5"></path>
        <path d="M391.84 647.41L214.88 525.2" stroke="#132e65" stroke-width="1.5"></path>
        <path d="M529.54 359.35L529.54 359.35" stroke="#132e65" stroke-width="1.5"></path>
        <path d="M529.54 359.35L659.06 406.45" stroke="#132e65" stroke-width="1.5"></path>
        <path d="M529.54 359.35L505.04 506.41" stroke="#132e65" stroke-width="1.5"></path>
        <path d="M529.54 359.35L681.35 490.81" stroke="#132e65" stroke-width="1.5"></path>
        <path d="M529.54 359.35L368.77 509.29" stroke="#132e65" stroke-width="1.5"></path>
        <path d="M505.04 506.41L505.04 506.41" stroke="#132e65" stroke-width="1.5"></path>
        <path d="M505.04 506.41L522.72 660.57" stroke="#132e65" stroke-width="1.5"></path>
        <path d="M522.72 660.57L522.72 660.57" stroke="#132e65" stroke-width="1.5"></path>
        <path d="M522.72 660.57L672.36 667.36" stroke="#132e65" stroke-width="1.5"></path>
        <path d="M659.06 406.45L659.06 406.45" stroke="#132e65" stroke-width="1.5"></path>
        <path d="M659.06 406.45L681.35 490.81" stroke="#132e65" stroke-width="1.5"></path>
        <path d="M659.06 406.45L505.04 506.41" stroke="#132e65" stroke-width="1.5"></path>
        <path d="M659.06 406.45L850.71 375.78" stroke="#132e65" stroke-width="1.5"></path>
        <path d="M659.06 406.45L806.98 239.9" stroke="#132e65" stroke-width="1.5"></path>
        <path d="M659.06 406.45L839.56 550.26" stroke="#132e65" stroke-width="1.5"></path>
        <path d="M681.35 490.81L681.35 490.81" stroke="#132e65" stroke-width="1.5"></path>
        <path d="M681.35 490.81L839.56 550.26" stroke="#132e65" stroke-width="1.5"></path>
        <path d="M672.36 667.36L672.36 667.36" stroke="#132e65" stroke-width="1.5"></path>
        <path d="M672.36 667.36L799.07 672.1" stroke="#132e65" stroke-width="1.5"></path>
        <path d="M672.36 667.36L681.35 490.81" stroke="#132e65" stroke-width="1.5"></path>
        <path d="M672.36 667.36L839.56 550.26" stroke="#132e65" stroke-width="1.5"></path>
        <path d="M806.98 239.9L806.98 239.9" stroke="#132e65" stroke-width="1.5"></path>
        <path d="M806.98 239.9L850.71 375.78" stroke="#132e65" stroke-width="1.5"></path>
        <path d="M806.98 239.9L990.04 245.03" stroke="#132e65" stroke-width="1.5"></path>
        <path d="M806.98 239.9L963.1 106.04" stroke="#132e65" stroke-width="1.5"></path>
        <path d="M850.71 375.78L850.71 375.78" stroke="#132e65" stroke-width="1.5"></path>
        <path d="M850.71 375.78L965.1 404.83" stroke="#132e65" stroke-width="1.5"></path>
        <path d="M850.71 375.78L839.56 550.26" stroke="#132e65" stroke-width="1.5"></path>
        <path d="M850.71 375.78L983.46 505.08" stroke="#132e65" stroke-width="1.5"></path>
        <path d="M839.56 550.26L839.56 550.26" stroke="#132e65" stroke-width="1.5"></path>
        <path d="M839.56 550.26L799.07 672.1" stroke="#132e65" stroke-width="1.5"></path>
        <path d="M839.56 550.26L938.53 645.69" stroke="#132e65" stroke-width="1.5"></path>
        <path d="M839.56 550.26L983.46 505.08" stroke="#132e65" stroke-width="1.5"></path>
        <path d="M799.07 672.1L799.07 672.1" stroke="#132e65" stroke-width="1.5"></path>
        <path d="M799.07 672.1L938.53 645.69" stroke="#132e65" stroke-width="1.5"></path>
        <path d="M799.07 672.1L681.35 490.81" stroke="#132e65" stroke-width="1.5"></path>
        <path d="M799.07 672.1L983.46 505.08" stroke="#132e65" stroke-width="1.5"></path>
        <path d="M799.07 672.1L522.72 660.57" stroke="#132e65" stroke-width="1.5"></path>
        <path d="M956.54 -76.51L956.54 -76.51" stroke="#132e65" stroke-width="1.5"></path>
        <path d="M956.54 -76.51L1127.24 -86.52" stroke="#132e65" stroke-width="1.5"></path>
        <path d="M956.54 -76.51L963.1 106.04" stroke="#132e65" stroke-width="1.5"></path>
        <path d="M956.54 -76.51L1151.06 96.18" stroke="#132e65" stroke-width="1.5"></path>
        <path d="M956.54 -76.51L1260.63 -99.09" stroke="#132e65" stroke-width="1.5"></path>
        <path d="M956.54 -76.51L990.04 245.03" stroke="#132e65" stroke-width="1.5"></path>
        <path d="M963.1 106.04L963.1 106.04" stroke="#132e65" stroke-width="1.5"></path>
        <path d="M963.1 106.04L990.04 245.03" stroke="#132e65" stroke-width="1.5"></path>
        <path d="M963.1 106.04L1151.06 96.18" stroke="#132e65" stroke-width="1.5"></path>
        <path d="M963.1 106.04L1107.78 257.68" stroke="#132e65" stroke-width="1.5"></path>
        <path d="M963.1 106.04L1127.24 -86.52" stroke="#132e65" stroke-width="1.5"></path>
        <path d="M990.04 245.03L990.04 245.03" stroke="#132e65" stroke-width="1.5"></path>
        <path d="M990.04 245.03L1107.78 257.68" stroke="#132e65" stroke-width="1.5"></path>
        <path d="M990.04 245.03L1105.37 343.37" stroke="#132e65" stroke-width="1.5"></path>
        <path d="M990.04 245.03L965.1 404.83" stroke="#132e65" stroke-width="1.5"></path>
        <path d="M990.04 245.03L850.71 375.78" stroke="#132e65" stroke-width="1.5"></path>
        <path d="M965.1 404.83L965.1 404.83" stroke="#132e65" stroke-width="1.5"></path>
        <path d="M965.1 404.83L983.46 505.08" stroke="#132e65" stroke-width="1.5"></path>
        <path d="M965.1 404.83L1105.37 343.37" stroke="#132e65" stroke-width="1.5"></path>
        <path d="M965.1 404.83L1107.45 497.22" stroke="#132e65" stroke-width="1.5"></path>
        <path d="M983.46 505.08L983.46 505.08" stroke="#132e65" stroke-width="1.5"></path>
        <path d="M983.46 505.08L1107.45 497.22" stroke="#132e65" stroke-width="1.5"></path>
        <path d="M983.46 505.08L938.53 645.69" stroke="#132e65" stroke-width="1.5"></path>
        <path d="M938.53 645.69L938.53 645.69" stroke="#132e65" stroke-width="1.5"></path>
        <path d="M1127.24 -86.52L1127.24 -86.52" stroke="#132e65" stroke-width="1.5"></path>
        <path d="M1127.24 -86.52L1260.63 -99.09" stroke="#132e65" stroke-width="1.5"></path>
        <path d="M1127.24 -86.52L1151.06 96.18" stroke="#132e65" stroke-width="1.5"></path>
        <path d="M1127.24 -86.52L1262.65 103.47" stroke="#132e65" stroke-width="1.5"></path>
        <path d="M1127.24 -86.52L1390.63 75.48" stroke="#132e65" stroke-width="1.5"></path>
        <path d="M1151.06 96.18L1151.06 96.18" stroke="#132e65" stroke-width="1.5"></path>
        <path d="M1151.06 96.18L1262.65 103.47" stroke="#132e65" stroke-width="1.5"></path>
        <path d="M1151.06 96.18L1251.48 197.27" stroke="#132e65" stroke-width="1.5"></path>
        <path d="M1151.06 96.18L1107.78 257.68" stroke="#132e65" stroke-width="1.5"></path>
        <path d="M1151.06 96.18L990.04 245.03" stroke="#132e65" stroke-width="1.5"></path>
        <path d="M1107.78 257.68L1107.78 257.68" stroke="#132e65" stroke-width="1.5"></path>
        <path d="M1107.78 257.68L1105.37 343.37" stroke="#132e65" stroke-width="1.5"></path>
        <path d="M1107.78 257.68L1251.48 197.27" stroke="#132e65" stroke-width="1.5"></path>
        <path d="M1107.78 257.68L965.1 404.83" stroke="#132e65" stroke-width="1.5"></path>
        <path d="M1105.37 343.37L1105.37 343.37" stroke="#132e65" stroke-width="1.5"></path>
        <path d="M1105.37 343.37L1107.45 497.22" stroke="#132e65" stroke-width="1.5"></path>
        <path d="M1107.45 497.22L1107.45 497.22" stroke="#132e65" stroke-width="1.5"></path>
        <path d="M1107.45 497.22L1140.94 689.22" stroke="#132e65" stroke-width="1.5"></path>
        <path d="M1140.94 689.22L1140.94 689.22" stroke="#132e65" stroke-width="1.5"></path>
        <path d="M1140.94 689.22L1278.99 665.3" stroke="#132e65" stroke-width="1.5"></path>
        <path d="M1140.94 689.22L938.53 645.69" stroke="#132e65" stroke-width="1.5"></path>
        <path d="M1260.63 -99.09L1260.63 -99.09" stroke="#132e65" stroke-width="1.5"></path>
        <path d="M1260.63 -99.09L1457 -72.34" stroke="#132e65" stroke-width="1.5"></path>
        <path d="M1260.63 -99.09L1262.65 103.47" stroke="#132e65" stroke-width="1.5"></path>
        <path d="M1260.63 -99.09L1390.63 75.48" stroke="#132e65" stroke-width="1.5"></path>
        <path d="M1262.65 103.47L1262.65 103.47" stroke="#132e65" stroke-width="1.5"></path>
        <path d="M1262.65 103.47L1251.48 197.27" stroke="#132e65" stroke-width="1.5"></path>
        <path d="M1262.65 103.47L1390.63 75.48" stroke="#132e65" stroke-width="1.5"></path>
        <path d="M1262.65 103.47L1107.78 257.68" stroke="#132e65" stroke-width="1.5"></path>
        <path d="M1251.48 197.27L1251.48 197.27" stroke="#132e65" stroke-width="1.5"></path>
        <path d="M1307.99 386.85L1307.99 386.85" stroke="#132e65" stroke-width="1.5"></path>
        <path d="M1307.99 386.85L1392.09 342.32" stroke="#132e65" stroke-width="1.5"></path>
        <path d="M1307.99 386.85L1308.01 498.89" stroke="#132e65" stroke-width="1.5"></path>
        <path d="M1307.99 386.85L1396.24 550.71" stroke="#132e65" stroke-width="1.5"></path>
        <path d="M1307.99 386.85L1251.48 197.27" stroke="#132e65" stroke-width="1.5"></path>
        <path d="M1307.99 386.85L1105.37 343.37" stroke="#132e65" stroke-width="1.5"></path>
        <path d="M1308.01 498.89L1308.01 498.89" stroke="#132e65" stroke-width="1.5"></path>
        <path d="M1308.01 498.89L1396.24 550.71" stroke="#132e65" stroke-width="1.5"></path>
        <path d="M1308.01 498.89L1278.99 665.3" stroke="#132e65" stroke-width="1.5"></path>
        <path d="M1308.01 498.89L1392.09 342.32" stroke="#132e65" stroke-width="1.5"></path>
        <path d="M1278.99 665.3L1278.99 665.3" stroke="#132e65" stroke-width="1.5"></path>
        <path d="M1278.99 665.3L1391.19 678.89" stroke="#132e65" stroke-width="1.5"></path>
        <path d="M1457 -72.34L1457 -72.34" stroke="#132e65" stroke-width="1.5"></path>
        <path d="M1457 -72.34L1582.77 -75.66" stroke="#132e65" stroke-width="1.5"></path>
        <path d="M1457 -72.34L1390.63 75.48" stroke="#132e65" stroke-width="1.5"></path>
        <path d="M1457 -72.34L1539.79 88.41" stroke="#132e65" stroke-width="1.5"></path>
        <path d="M1390.63 75.48L1390.63 75.48" stroke="#132e65" stroke-width="1.5"></path>
        <path d="M1390.63 75.48L1539.79 88.41" stroke="#132e65" stroke-width="1.5"></path>
        <path d="M1392.09 342.32L1392.09 342.32" stroke="#132e65" stroke-width="1.5"></path>
        <path d="M1392.09 342.32L1568.56 389.09" stroke="#132e65" stroke-width="1.5"></path>
        <path d="M1396.24 550.71L1396.24 550.71" stroke="#132e65" stroke-width="1.5"></path>
        <path d="M1396.24 550.71L1391.19 678.89" stroke="#132e65" stroke-width="1.5"></path>
        <path d="M1396.24 550.71L1278.99 665.3" stroke="#132e65" stroke-width="1.5"></path>
        <path d="M1391.19 678.89L1391.19 678.89" stroke="#132e65" stroke-width="1.5"></path>
        <path d="M1391.19 678.89L1546.64 706.74" stroke="#132e65" stroke-width="1.5"></path>
        <path d="M1391.19 678.89L1308.01 498.89" stroke="#132e65" stroke-width="1.5"></path>
        <path d="M1582.77 -75.66L1582.77 -75.66" stroke="#132e65" stroke-width="1.5"></path>
        <path d="M1582.77 -75.66L1539.79 88.41" stroke="#132e65" stroke-width="1.5"></path>
        <path d="M1539.79 88.41L1539.79 88.41" stroke="#132e65" stroke-width="1.5"></path>
        <path d="M1539.79 88.41L1551.45 200.38" stroke="#132e65" stroke-width="1.5"></path>
        <path d="M1551.45 200.38L1551.45 200.38" stroke="#132e65" stroke-width="1.5"></path>
        <path d="M1551.45 200.38L1568.56 389.09" stroke="#132e65" stroke-width="1.5"></path>
        <path d="M1551.45 200.38L1390.63 75.48" stroke="#132e65" stroke-width="1.5"></path>
        <path d="M1551.45 200.38L1392.09 342.32" stroke="#132e65" stroke-width="1.5"></path>
        <path d="M1551.45 200.38L1582.77 -75.66" stroke="#132e65" stroke-width="1.5"></path>
        <path d="M1551.45 200.38L1457 -72.34" stroke="#132e65" stroke-width="1.5"></path>
        <path d="M1568.56 389.09L1568.56 389.09" stroke="#132e65" stroke-width="1.5"></path>
        <path d="M1568.56 389.09L1587.77 535.02" stroke="#132e65" stroke-width="1.5"></path>
        <path d="M1587.77 535.02L1587.77 535.02" stroke="#132e65" stroke-width="1.5"></path>
        <path d="M1587.77 535.02L1546.64 706.74" stroke="#132e65" stroke-width="1.5"></path>
        <path d="M1587.77 535.02L1396.24 550.71" stroke="#132e65" stroke-width="1.5"></path>
        <path d="M1587.77 535.02L1391.19 678.89" stroke="#132e65" stroke-width="1.5"></path>
        <path d="M1587.77 535.02L1392.09 342.32" stroke="#132e65" stroke-width="1.5"></path>
        <path d="M1587.77 535.02L1308.01 498.89" stroke="#132e65" stroke-width="1.5"></path>
        <path d="M1546.64 706.74L1546.64 706.74" stroke="#132e65" stroke-width="1.5"></path>
        <path d="M1546.64 706.74L1396.24 550.71" stroke="#132e65" stroke-width="1.5"></path>
        <path d="M1546.64 706.74L1278.99 665.3" stroke="#132e65" stroke-width="1.5"></path>
        <path d="M1546.64 706.74L1308.01 498.89" stroke="#132e65" stroke-width="1.5"></path>
        <path d="M1546.64 706.74L1568.56 389.09" stroke="#132e65" stroke-width="1.5"></path>
        <path d="M-73.44 650.46L-73.44 650.46" stroke="hsl(228.5, 77.2%, 51.5%)" stroke-width="1.5"></path>
        <path d="M-73.44 650.46L-89.7 493.65" stroke="hsl(228.5, 77.2%, 51.5%)" stroke-width="1.5"></path>
        <path d="M-73.44 650.46L105.31 685.04" stroke="hsl(228.5, 77.2%, 51.5%)" stroke-width="1.5"></path>
        <path d="M-73.44 650.46L103.22 505.18" stroke="hsl(228.5, 77.2%, 51.5%)" stroke-width="1.5"></path>
        <path d="M-73.44 650.46L213.55 562.42" stroke="hsl(228.5, 77.2%, 51.5%)" stroke-width="1.5"></path>
        <path d="M-73.44 650.46L236.29 638.51" stroke="hsl(228.5, 77.2%, 51.5%)" stroke-width="1.5"></path>
        <path d="M-73.44 650.46L339.34 501.23" stroke="hsl(228.5, 77.2%, 51.5%)" stroke-width="1.5"></path>
        <path d="M105.31 685.04L105.31 685.04" stroke="hsl(228.5, 77.2%, 51.5%)" stroke-width="1.5"></path>
        <path d="M105.31 685.04L236.29 638.51" stroke="hsl(228.5, 77.2%, 51.5%)" stroke-width="1.5"></path>
        <path d="M105.31 685.04L213.55 562.42" stroke="hsl(228.5, 77.2%, 51.5%)" stroke-width="1.5"></path>
        <path d="M105.31 685.04L103.22 505.18" stroke="hsl(228.5, 77.2%, 51.5%)" stroke-width="1.5"></path>
        <path d="M105.31 685.04L368.45 649.15" stroke="hsl(228.5, 77.2%, 51.5%)" stroke-width="1.5"></path>
        <path d="M368.45 649.15L368.45 649.15" stroke="hsl(228.5, 77.2%, 51.5%)" stroke-width="1.5"></path>
        <path d="M368.45 649.15L236.29 638.51" stroke="hsl(228.5, 77.2%, 51.5%)" stroke-width="1.5"></path>
        <path d="M368.45 649.15L514.62 652.92" stroke="hsl(228.5, 77.2%, 51.5%)" stroke-width="1.5"></path>
        <path d="M368.45 649.15L489.16 559.75" stroke="hsl(228.5, 77.2%, 51.5%)" stroke-width="1.5"></path>
        <path d="M368.45 649.15L339.34 501.23" stroke="hsl(228.5, 77.2%, 51.5%)" stroke-width="1.5"></path>
        <path d="M368.45 649.15L213.55 562.42" stroke="hsl(228.5, 77.2%, 51.5%)" stroke-width="1.5"></path>
        <path d="M1138.42 219.76L1138.42 219.76" stroke="hsl(228.5, 77.2%, 51.5%)" stroke-width="1.5"></path>
        <path d="M1138.42 219.76L1251.3 218.69" stroke="hsl(228.5, 77.2%, 51.5%)" stroke-width="1.5"></path>
        <path d="M1138.42 219.76L1160.63 382.78" stroke="hsl(228.5, 77.2%, 51.5%)" stroke-width="1.5"></path>
        <path d="M1115.8 673.63L1115.8 673.63" stroke="hsl(228.5, 77.2%, 51.5%)" stroke-width="1.5"></path>
        <path d="M1115.8 673.63L1247.16 659.88" stroke="hsl(228.5, 77.2%, 51.5%)" stroke-width="1.5"></path>
        <path d="M1115.8 673.63L971.75 638.28" stroke="hsl(228.5, 77.2%, 51.5%)" stroke-width="1.5"></path>
        <path d="M1245.92 360.24L1245.92 360.24" stroke="hsl(228.5, 77.2%, 51.5%)" stroke-width="1.5"></path>
        <path d="M1245.92 360.24L1160.63 382.78" stroke="hsl(228.5, 77.2%, 51.5%)" stroke-width="1.5"></path>
        <path d="M1245.92 360.24L1251.3 218.69" stroke="hsl(228.5, 77.2%, 51.5%)" stroke-width="1.5"></path>
        <path d="M1245.92 360.24L1258.3 502.17" stroke="hsl(228.5, 77.2%, 51.5%)" stroke-width="1.5"></path>
        <path d="M1245.92 360.24L1138.42 219.76" stroke="hsl(228.5, 77.2%, 51.5%)" stroke-width="1.5"></path>
        <path d="M1245.92 360.24L1155.89 520.83" stroke="hsl(228.5, 77.2%, 51.5%)" stroke-width="1.5"></path>
        <path d="M1412.1 513.17L1412.1 513.17" stroke="hsl(228.5, 77.2%, 51.5%)" stroke-width="1.5"></path>
        <path d="M1412.1 513.17L1440.99 391.74" stroke="hsl(228.5, 77.2%, 51.5%)" stroke-width="1.5"></path>
        <path d="M1412.1 513.17L1258.3 502.17" stroke="hsl(228.5, 77.2%, 51.5%)" stroke-width="1.5"></path>
        <path d="M1590.57 238.84L1590.57 238.84" stroke="hsl(228.5, 77.2%, 51.5%)" stroke-width="1.5"></path>
        <path d="M1590.57 238.84L1456.63 190.24" stroke="hsl(228.5, 77.2%, 51.5%)" stroke-width="1.5"></path>
        <path d="M1590.57 238.84L1586.96 383.08" stroke="hsl(228.5, 77.2%, 51.5%)" stroke-width="1.5"></path>
        <path d="M1537.9 691.55L1537.9 691.55" stroke="hsl(228.5, 77.2%, 51.5%)" stroke-width="1.5"></path>
        <path d="M1537.9 691.55L1424.44 704.38" stroke="hsl(228.5, 77.2%, 51.5%)" stroke-width="1.5"></path>
        <path d="M1537.9 691.55L1599.39 531.37" stroke="hsl(228.5, 77.2%, 51.5%)" stroke-width="1.5"></path>
        <path d="M1537.9 691.55L1412.1 513.17" stroke="hsl(228.5, 77.2%, 51.5%)" stroke-width="1.5"></path>
        <path d="M1537.9 691.55L1247.16 659.88" stroke="hsl(228.5, 77.2%, 51.5%)" stroke-width="1.5"></path>
        <path d="M1537.9 691.55L1586.96 383.08" stroke="hsl(228.5, 77.2%, 51.5%)" stroke-width="1.5"></path>
        <path d="M1537.9 691.55L1440.99 391.74" stroke="hsl(228.5, 77.2%, 51.5%)" stroke-width="1.5"></path>
        <path d="M-89.7 493.65L-89.7 493.65" stroke="hsl(228.5, 77.2%, 51.5%)" stroke-width="1.5"></path>
        <path d="M-89.7 493.65L103.22 505.18" stroke="hsl(228.5, 77.2%, 51.5%)" stroke-width="1.5"></path>
        <path d="M-89.7 493.65L105.31 685.04" stroke="hsl(228.5, 77.2%, 51.5%)" stroke-width="1.5"></path>
        <path d="M103.22 505.18L103.22 505.18" stroke="hsl(228.5, 77.2%, 51.5%)" stroke-width="1.5"></path>
        <path d="M103.22 505.18L213.55 562.42" stroke="hsl(228.5, 77.2%, 51.5%)" stroke-width="1.5"></path>
        <path d="M103.22 505.18L236.29 638.51" stroke="hsl(228.5, 77.2%, 51.5%)" stroke-width="1.5"></path>
        <path d="M213.55 562.42L213.55 562.42" stroke="hsl(228.5, 77.2%, 51.5%)" stroke-width="1.5"></path>
        <path d="M213.55 562.42L236.29 638.51" stroke="hsl(228.5, 77.2%, 51.5%)" stroke-width="1.5"></path>
        <path d="M236.29 638.51L236.29 638.51" stroke="hsl(228.5, 77.2%, 51.5%)" stroke-width="1.5"></path>
        <path d="M236.29 638.51L339.34 501.23" stroke="hsl(228.5, 77.2%, 51.5%)" stroke-width="1.5"></path>
        <path d="M339.34 501.23L339.34 501.23" stroke="hsl(228.5, 77.2%, 51.5%)" stroke-width="1.5"></path>
        <path d="M339.34 501.23L213.55 562.42" stroke="hsl(228.5, 77.2%, 51.5%)" stroke-width="1.5"></path>
        <path d="M339.34 501.23L489.16 559.75" stroke="hsl(228.5, 77.2%, 51.5%)" stroke-width="1.5"></path>
        <path d="M339.34 501.23L514.62 652.92" stroke="hsl(228.5, 77.2%, 51.5%)" stroke-width="1.5"></path>
        <path d="M339.34 501.23L103.22 505.18" stroke="hsl(228.5, 77.2%, 51.5%)" stroke-width="1.5"></path>
        <path d="M489.16 559.75L489.16 559.75" stroke="hsl(228.5, 77.2%, 51.5%)" stroke-width="1.5"></path>
        <path d="M489.16 559.75L514.62 652.92" stroke="hsl(228.5, 77.2%, 51.5%)" stroke-width="1.5"></path>
        <path d="M514.62 652.92L514.62 652.92" stroke="hsl(228.5, 77.2%, 51.5%)" stroke-width="1.5"></path>
        <path d="M514.62 652.92L646.85 640.82" stroke="hsl(228.5, 77.2%, 51.5%)" stroke-width="1.5"></path>
        <path d="M514.62 652.92L236.29 638.51" stroke="hsl(228.5, 77.2%, 51.5%)" stroke-width="1.5"></path>
        <path d="M652.77 379.99L652.77 379.99" stroke="hsl(228.5, 77.2%, 51.5%)" stroke-width="1.5"></path>
        <path d="M652.77 379.99L844.36 397.48" stroke="hsl(228.5, 77.2%, 51.5%)" stroke-width="1.5"></path>
        <path d="M652.77 379.99L811.09 547.71" stroke="hsl(228.5, 77.2%, 51.5%)" stroke-width="1.5"></path>
        <path d="M652.77 379.99L489.16 559.75" stroke="hsl(228.5, 77.2%, 51.5%)" stroke-width="1.5"></path>
        <path d="M646.85 640.82L646.85 640.82" stroke="hsl(228.5, 77.2%, 51.5%)" stroke-width="1.5"></path>
        <path d="M646.85 640.82L489.16 559.75" stroke="hsl(228.5, 77.2%, 51.5%)" stroke-width="1.5"></path>
        <path d="M844.36 397.48L844.36 397.48" stroke="hsl(228.5, 77.2%, 51.5%)" stroke-width="1.5"></path>
        <path d="M844.36 397.48L976.52 352.89" stroke="hsl(228.5, 77.2%, 51.5%)" stroke-width="1.5"></path>
        <path d="M844.36 397.48L811.09 547.71" stroke="hsl(228.5, 77.2%, 51.5%)" stroke-width="1.5"></path>
        <path d="M844.36 397.48L980.44 505.37" stroke="hsl(228.5, 77.2%, 51.5%)" stroke-width="1.5"></path>
        <path d="M811.09 547.71L811.09 547.71" stroke="hsl(228.5, 77.2%, 51.5%)" stroke-width="1.5"></path>
        <path d="M811.09 547.71L980.44 505.37" stroke="hsl(228.5, 77.2%, 51.5%)" stroke-width="1.5"></path>
        <path d="M811.09 547.71L971.75 638.28" stroke="hsl(228.5, 77.2%, 51.5%)" stroke-width="1.5"></path>
        <path d="M976.52 352.89L976.52 352.89" stroke="hsl(228.5, 77.2%, 51.5%)" stroke-width="1.5"></path>
        <path d="M976.52 352.89L980.44 505.37" stroke="hsl(228.5, 77.2%, 51.5%)" stroke-width="1.5"></path>
        <path d="M976.52 352.89L1160.63 382.78" stroke="hsl(228.5, 77.2%, 51.5%)" stroke-width="1.5"></path>
        <path d="M980.44 505.37L980.44 505.37" stroke="hsl(228.5, 77.2%, 51.5%)" stroke-width="1.5"></path>
        <path d="M980.44 505.37L971.75 638.28" stroke="hsl(228.5, 77.2%, 51.5%)" stroke-width="1.5"></path>
        <path d="M971.75 638.28L971.75 638.28" stroke="hsl(228.5, 77.2%, 51.5%)" stroke-width="1.5"></path>
        <path d="M971.75 638.28L1155.89 520.83" stroke="hsl(228.5, 77.2%, 51.5%)" stroke-width="1.5"></path>
        <path d="M971.75 638.28L844.36 397.48" stroke="hsl(228.5, 77.2%, 51.5%)" stroke-width="1.5"></path>
        <path d="M971.75 638.28L1247.16 659.88" stroke="hsl(228.5, 77.2%, 51.5%)" stroke-width="1.5"></path>
        <path d="M1160.63 382.78L1160.63 382.78" stroke="hsl(228.5, 77.2%, 51.5%)" stroke-width="1.5"></path>
        <path d="M1160.63 382.78L1155.89 520.83" stroke="hsl(228.5, 77.2%, 51.5%)" stroke-width="1.5"></path>
        <path d="M1155.89 520.83L1155.89 520.83" stroke="hsl(228.5, 77.2%, 51.5%)" stroke-width="1.5"></path>
        <path d="M1155.89 520.83L1258.3 502.17" stroke="hsl(228.5, 77.2%, 51.5%)" stroke-width="1.5"></path>
        <path d="M1155.89 520.83L1115.8 673.63" stroke="hsl(228.5, 77.2%, 51.5%)" stroke-width="1.5"></path>
        <path d="M1155.89 520.83L1247.16 659.88" stroke="hsl(228.5, 77.2%, 51.5%)" stroke-width="1.5"></path>
        <path d="M1238.26 -76.73L1238.26 -76.73" stroke="hsl(228.5, 77.2%, 51.5%)" stroke-width="1.5"></path>
        <path d="M1238.26 -76.73L1294.28 63.82" stroke="hsl(228.5, 77.2%, 51.5%)" stroke-width="1.5"></path>
        <path d="M1238.26 -76.73L1450.91 -50.22" stroke="hsl(228.5, 77.2%, 51.5%)" stroke-width="1.5"></path>
        <path d="M1238.26 -76.73L1388.97 101.67" stroke="hsl(228.5, 77.2%, 51.5%)" stroke-width="1.5"></path>
        <path d="M1238.26 -76.73L1251.3 218.69" stroke="hsl(228.5, 77.2%, 51.5%)" stroke-width="1.5"></path>
        <path d="M1294.28 63.82L1294.28 63.82" stroke="hsl(228.5, 77.2%, 51.5%)" stroke-width="1.5"></path>
        <path d="M1294.28 63.82L1388.97 101.67" stroke="hsl(228.5, 77.2%, 51.5%)" stroke-width="1.5"></path>
        <path d="M1294.28 63.82L1251.3 218.69" stroke="hsl(228.5, 77.2%, 51.5%)" stroke-width="1.5"></path>
        <path d="M1294.28 63.82L1450.91 -50.22" stroke="hsl(228.5, 77.2%, 51.5%)" stroke-width="1.5"></path>
        <path d="M1294.28 63.82L1456.63 190.24" stroke="hsl(228.5, 77.2%, 51.5%)" stroke-width="1.5"></path>
        <path d="M1294.28 63.82L1138.42 219.76" stroke="hsl(228.5, 77.2%, 51.5%)" stroke-width="1.5"></path>
        <path d="M1251.3 218.69L1251.3 218.69" stroke="hsl(228.5, 77.2%, 51.5%)" stroke-width="1.5"></path>
        <path d="M1251.3 218.69L1388.97 101.67" stroke="hsl(228.5, 77.2%, 51.5%)" stroke-width="1.5"></path>
        <path d="M1251.3 218.69L1160.63 382.78" stroke="hsl(228.5, 77.2%, 51.5%)" stroke-width="1.5"></path>
        <path d="M1251.3 218.69L1456.63 190.24" stroke="hsl(228.5, 77.2%, 51.5%)" stroke-width="1.5"></path>
        <path d="M1258.3 502.17L1258.3 502.17" stroke="hsl(228.5, 77.2%, 51.5%)" stroke-width="1.5"></path>
        <path d="M1258.3 502.17L1160.63 382.78" stroke="hsl(228.5, 77.2%, 51.5%)" stroke-width="1.5"></path>
        <path d="M1258.3 502.17L1247.16 659.88" stroke="hsl(228.5, 77.2%, 51.5%)" stroke-width="1.5"></path>
        <path d="M1247.16 659.88L1247.16 659.88" stroke="hsl(228.5, 77.2%, 51.5%)" stroke-width="1.5"></path>
        <path d="M1450.91 -50.22L1450.91 -50.22" stroke="hsl(228.5, 77.2%, 51.5%)" stroke-width="1.5"></path>
        <path d="M1450.91 -50.22L1544.13 -65.82" stroke="hsl(228.5, 77.2%, 51.5%)" stroke-width="1.5"></path>
        <path d="M1450.91 -50.22L1546.83 43.61" stroke="hsl(228.5, 77.2%, 51.5%)" stroke-width="1.5"></path>
        <path d="M1450.91 -50.22L1388.97 101.67" stroke="hsl(228.5, 77.2%, 51.5%)" stroke-width="1.5"></path>
        <path d="M1388.97 101.67L1388.97 101.67" stroke="hsl(228.5, 77.2%, 51.5%)" stroke-width="1.5"></path>
        <path d="M1388.97 101.67L1456.63 190.24" stroke="hsl(228.5, 77.2%, 51.5%)" stroke-width="1.5"></path>
        <path d="M1388.97 101.67L1546.83 43.61" stroke="hsl(228.5, 77.2%, 51.5%)" stroke-width="1.5"></path>
        <path d="M1456.63 190.24L1456.63 190.24" stroke="hsl(228.5, 77.2%, 51.5%)" stroke-width="1.5"></path>
        <path d="M1456.63 190.24L1546.83 43.61" stroke="hsl(228.5, 77.2%, 51.5%)" stroke-width="1.5"></path>
        <path d="M1440.99 391.74L1440.99 391.74" stroke="hsl(228.5, 77.2%, 51.5%)" stroke-width="1.5"></path>
        <path d="M1440.99 391.74L1586.96 383.08" stroke="hsl(228.5, 77.2%, 51.5%)" stroke-width="1.5"></path>
        <path d="M1440.99 391.74L1245.92 360.24" stroke="hsl(228.5, 77.2%, 51.5%)" stroke-width="1.5"></path>
        <path d="M1424.44 704.38L1424.44 704.38" stroke="hsl(228.5, 77.2%, 51.5%)" stroke-width="1.5"></path>
        <path d="M1424.44 704.38L1247.16 659.88" stroke="hsl(228.5, 77.2%, 51.5%)" stroke-width="1.5"></path>
        <path d="M1544.13 -65.82L1544.13 -65.82" stroke="hsl(228.5, 77.2%, 51.5%)" stroke-width="1.5"></path>
        <path d="M1546.83 43.61L1546.83 43.61" stroke="hsl(228.5, 77.2%, 51.5%)" stroke-width="1.5"></path>
        <path d="M1546.83 43.61L1544.13 -65.82" stroke="hsl(228.5, 77.2%, 51.5%)" stroke-width="1.5"></path>
        <path d="M1546.83 43.61L1590.57 238.84" stroke="hsl(228.5, 77.2%, 51.5%)" stroke-width="1.5"></path>
        <path d="M1586.96 383.08L1586.96 383.08" stroke="hsl(228.5, 77.2%, 51.5%)" stroke-width="1.5"></path>
        <path d="M1599.39 531.37L1599.39 531.37" stroke="hsl(228.5, 77.2%, 51.5%)" stroke-width="1.5"></path>
        <path d="M1599.39 531.37L1586.96 383.08" stroke="hsl(228.5, 77.2%, 51.5%)" stroke-width="1.5"></path>
        <circle r="25" cx="-73.44" cy="650.46" fill="url(&quot;#SvgjsRadialGradient1003&quot;)"></circle>
        <circle r="25" cx="105.31" cy="685.04" fill="url(&quot;#SvgjsRadialGradient1003&quot;)"></circle>
        <circle r="25" cx="368.45" cy="649.15" fill="url(&quot;#SvgjsRadialGradient1003&quot;)"></circle>
        <circle r="25" cx="1138.42" cy="219.76" fill="url(&quot;#SvgjsRadialGradient1003&quot;)"></circle>
        <circle r="25" cx="1115.8" cy="673.63" fill="url(&quot;#SvgjsRadialGradient1003&quot;)"></circle>
        <circle r="25" cx="1245.92" cy="360.24" fill="url(&quot;#SvgjsRadialGradient1003&quot;)"></circle>
        <circle r="25" cx="1412.1" cy="513.17" fill="url(&quot;#SvgjsRadialGradient1003&quot;)"></circle>
        <circle r="25" cx="1590.57" cy="238.84" fill="url(&quot;#SvgjsRadialGradient1003&quot;)"></circle>
        <circle r="25" cx="1537.9" cy="691.55" fill="url(&quot;#SvgjsRadialGradient1003&quot;)"></circle>
        <circle r="5" cx="-89.7" cy="493.65" fill="#8b9ad9"></circle>
        <circle r="5" cx="103.22" cy="505.18" fill="#8b9ad9"></circle>
        <circle r="5" cx="213.55" cy="562.42" fill="#8b9ad9"></circle>
        <circle r="5" cx="236.29" cy="638.51" fill="#8b9ad9"></circle>
        <circle r="5" cx="339.34" cy="501.23" fill="#8b9ad9"></circle>
        <circle r="5" cx="489.16" cy="559.75" fill="#8b9ad9"></circle>
        <circle r="5" cx="514.62" cy="652.92" fill="#8b9ad9"></circle>
        <circle r="5" cx="652.77" cy="379.99" fill="#8b9ad9"></circle>
        <circle r="5" cx="646.85" cy="640.82" fill="#8b9ad9"></circle>
        <circle r="5" cx="844.36" cy="397.48" fill="#8b9ad9"></circle>
        <circle r="5" cx="811.09" cy="547.71" fill="#8b9ad9"></circle>
        <circle r="5" cx="976.52" cy="352.89" fill="#8b9ad9"></circle>
        <circle r="5" cx="980.44" cy="505.37" fill="#8b9ad9"></circle>
        <circle r="5" cx="971.75" cy="638.28" fill="#8b9ad9"></circle>
        <circle r="5" cx="1160.63" cy="382.78" fill="#8b9ad9"></circle>
        <circle r="5" cx="1155.89" cy="520.83" fill="#8b9ad9"></circle>
        <circle r="5" cx="1238.26" cy="-76.73" fill="#8b9ad9"></circle>
        <circle r="5" cx="1294.28" cy="63.82" fill="#8b9ad9"></circle>
        <circle r="5" cx="1251.3" cy="218.69" fill="#8b9ad9"></circle>
        <circle r="5" cx="1258.3" cy="502.17" fill="#8b9ad9"></circle>
        <circle r="5" cx="1247.16" cy="659.88" fill="#8b9ad9"></circle>
        <circle r="5" cx="1450.91" cy="-50.22" fill="#8b9ad9"></circle>
        <circle r="5" cx="1388.97" cy="101.67" fill="#8b9ad9"></circle>
        <circle r="5" cx="1456.63" cy="190.24" fill="#8b9ad9"></circle>
        <circle r="5" cx="1440.99" cy="391.74" fill="#8b9ad9"></circle>
        <circle r="5" cx="1424.44" cy="704.38" fill="#8b9ad9"></circle>
        <circle r="5" cx="1544.13" cy="-65.82" fill="#8b9ad9"></circle>
        <circle r="5" cx="1546.83" cy="43.61" fill="#8b9ad9"></circle>
        <circle r="5" cx="1586.96" cy="383.08" fill="#8b9ad9"></circle>
        <circle r="5" cx="1599.39" cy="531.37" fill="#8b9ad9"></circle>
    </g>
    <defs>
        <mask id="SvgjsMask1002">
            <rect width="1440" height="560" fill="#ffffff"></rect>
        </mask>
        <radialGradient id="SvgjsRadialGradient1003">
            <stop stop-color="#ffffff" offset="0.1"></stop>
            <stop stop-color="#1735b3" offset="0.2"></stop>
            <stop stop-color="rgba(23, 53, 179, 0)" offset="1"></stop>
        </radialGradient>
    </defs>
</svg>
